<svg width="50" height="50" viewBox="0 0 50 50" fill="none" xmlns="http://www.w3.org/2000/svg">
<g clip-path="url(#clip0_1290_1412)">
<rect width="50" height="50" rx="10" fill="black"/>
<path d="M20.0739 22.8483C19.5688 23.2091 18.9193 23.4256 18.1256 23.4256H13.6517V18.7352H17.837C18.2699 18.7352 18.6307 18.7352 18.9915 18.8074C19.3523 18.8796 19.6409 19.0239 19.9296 19.1682C20.2182 19.3847 20.4347 19.6012 20.579 19.8898C20.7233 20.1784 20.7955 20.6114 20.7955 21.0443C20.7955 21.8381 20.579 22.4875 20.0739 22.8483Z" fill="#E5E5E5"/>
<path d="M19.5688 31.7961C19.208 31.8682 18.775 31.9404 18.3421 31.9404H13.6517V26.3841H18.4142C19.3523 26.3841 20.1461 26.6006 20.7233 27.0336C21.3006 27.5387 21.5892 28.2603 21.5892 29.2705C21.5892 29.7756 21.4449 30.2086 21.3006 30.5694C21.0841 30.9302 20.8677 31.1466 20.579 31.3631C20.2904 31.5796 19.9296 31.7239 19.5688 31.7961Z" fill="#E5E5E5"/>
<path d="M34.5779 23.4978C35.516 23.4978 36.3097 23.7864 36.8149 24.2915C37.32 24.7966 37.6808 25.5182 37.8251 26.6006H31.3308C31.3308 26.3615 31.3803 26.1224 31.4383 25.8422C31.4503 25.7842 31.4627 25.7244 31.4751 25.6625C31.5472 25.3017 31.6915 24.9409 31.9802 24.6523C32.2688 24.3637 32.5575 24.075 32.9904 23.8585C33.4234 23.6421 33.9285 23.4978 34.5779 23.4978Z" fill="#E5E5E5"/>
<path fill-rule="evenodd" clip-rule="evenodd" d="M3.15625 -7C-2.45289 -7 -7 -2.45289 -7 3.15625V47.8438C-7 53.4529 -2.45289 58 3.15625 58H47.8438C53.4529 58 58 53.4529 58 47.8438V3.15625C58 -2.45289 53.4529 -7 47.8438 -7H3.15625ZM21.3006 15.6324C20.5069 15.4159 19.6409 15.3438 18.7029 15.3438H9.25V35.2597H18.9193C19.7853 35.2597 20.6512 35.1154 21.5171 34.8989C22.383 34.6824 23.1767 34.3216 23.8262 33.8887C24.4756 33.4557 25.0529 32.8063 25.4137 32.0847C25.7745 31.3631 25.991 30.4972 25.991 29.487C25.991 28.2603 25.6302 27.1779 25.0529 26.312C24.4756 25.4461 23.5375 24.7966 22.3108 24.4358C23.1767 24.0029 23.8983 23.4256 24.3313 22.7762C24.8364 22.1267 25.0529 21.2608 25.0529 20.2506C25.0529 19.3847 24.9086 18.5909 24.6199 17.9415C24.3313 17.2921 23.8983 16.7869 23.3211 16.4261C22.7438 16.0653 22.0944 15.7767 21.3006 15.6324ZM34.8666 32.7341C33.712 32.7341 32.8461 32.4455 32.2688 31.8682C31.6915 31.291 31.2586 30.2086 31.2586 29.054H41.7217C41.7938 27.8995 41.7217 26.8892 41.5774 25.879C41.2887 24.8688 40.8558 23.9307 40.2785 23.137C39.7012 22.271 38.9796 21.6938 38.0416 21.1887C37.1035 20.6835 36.0211 20.4671 34.7944 20.4671C33.6399 20.4671 32.7018 20.6835 31.7637 21.0443C30.8978 21.4051 30.104 21.9824 29.4546 22.6318C28.8052 23.3534 28.3001 24.1472 27.9393 25.0853C27.5785 26.0233 27.4341 27.0336 27.4341 28.1159C27.4341 29.2705 27.5785 30.2807 27.9393 31.2188C28.2279 32.1569 28.733 32.9506 29.3824 33.6001C30.0319 34.3216 30.7535 34.8268 31.6915 35.1876C32.6296 35.5484 33.6399 35.7648 34.7944 35.7648C36.4541 35.7648 37.8251 35.3319 38.9796 34.6103C40.1342 33.8165 41.0001 32.5898 41.5774 30.858H38.0416C37.8973 31.291 37.5365 31.7239 36.9592 32.1569C36.3819 32.5177 35.6603 32.7341 34.8666 32.7341ZM38.5467 16.7148H30.4648V18.6631H38.5467V16.7148Z" fill="#E5E5E5"/>
</g>
<defs>
<clipPath id="clip0_1290_1412">
<rect width="50" height="50" rx="10" fill="white"/>
</clipPath>
</defs>
</svg>
