<svg width="125" height="125" viewBox="0 0 125 125" fill="none" xmlns="http://www.w3.org/2000/svg">
<mask id="mask0_1231_967" style="mask-type:alpha" maskUnits="userSpaceOnUse" x="0" y="0" width="125" height="125">
<rect width="125" height="125" rx="20" fill="#E5E5E5"/>
</mask>
<g mask="url(#mask0_1231_967)">
<rect width="125" height="125" rx="20" fill="#E5E5E5"/>
<path d="M9 69.5L1 78.5L-5.5 81L-3 141L128.5 131.5L125 69.5H9Z" fill="#41A1D4"/>
<rect x="9" y="19" width="108" height="88.1053" rx="11.3684" fill="#020608"/>
<mask id="mask1_1231_967" style="mask-type:alpha" maskUnits="userSpaceOnUse" x="15" y="24" width="96" height="78">
<rect x="15.6318" y="24.6846" width="94.7368" height="76.7368" rx="10" fill="#C4C4C4"/>
</mask>
<g mask="url(#mask1_1231_967)">
<rect x="15.6318" y="24.6846" width="15.1579" height="40.3157" fill="black"/>
<rect x="30.79" y="24.6846" width="17.0526" height="40.3157" fill="#41A1D4"/>
<rect x="47.8423" y="24.6846" width="15.1579" height="40.3157" fill="#FF97F5"/>
<rect x="63" y="24.6846" width="15.1579" height="40.3157" fill="#EBC814"/>
<rect x="95.2109" y="24.6846" width="15.1579" height="40.3157" fill="#E5E5E5"/>
<rect x="78.1582" y="24.6846" width="17.0526" height="40.3157" fill="#EE5424"/>
<rect x="110.369" y="103.316" width="15.1579" height="40.3157" transform="rotate(-180 110.369 103.316)" fill="black"/>
<rect x="95.2109" y="103.316" width="17.0526" height="40.3157" transform="rotate(-180 95.2109 103.316)" fill="#41A1D4"/>
<rect x="78.1582" y="103.316" width="15.1579" height="40.3157" transform="rotate(-180 78.1582 103.316)" fill="#FF97F5"/>
<rect x="63" y="103.316" width="15.1579" height="40.3157" transform="rotate(-180 63 103.316)" fill="#EBC814"/>
<rect x="30.79" y="103.316" width="15.1579" height="40.3157" transform="rotate(-180 30.79 103.316)" fill="#E5E5E5"/>
<rect x="47.8423" y="103.316" width="17.0526" height="40.3157" transform="rotate(-180 47.8423 103.316)" fill="#EE5424"/>
</g>
</g>
</svg>
