<svg width="500" height="500" viewBox="0 0 500 500" fill="none" xmlns="http://www.w3.org/2000/svg">
<rect width="500" height="500" fill="white"/>
<g clip-path="url(#clip0_1215_1406)">
<path d="M83.1504 278.698C84.7773 283.026 87.0298 286.727 89.9083 289.8C92.7867 292.874 96.1968 295.226 100.139 296.857C104.081 298.488 108.367 299.303 112.997 299.303C117.503 299.303 121.726 298.456 125.668 296.762C129.611 295.068 133.052 292.685 135.993 289.612C138.933 286.538 141.217 282.869 142.844 278.604C144.471 274.338 145.285 269.571 145.285 264.302V183.01H164.995V314.733H145.472V302.502C141.092 307.143 135.93 310.719 129.986 313.228C124.041 315.737 117.628 316.991 110.745 316.991C103.736 316.991 97.1979 315.768 91.1282 313.322C85.0589 310.875 79.8026 307.395 75.3603 302.878C70.918 298.362 67.4136 292.937 64.8483 286.601C62.2826 280.266 61 273.209 61 265.431V183.01H80.7101V264.302C80.7101 269.571 81.5234 274.369 83.1504 278.698ZM198.97 183.01V230.995C203.35 226.604 208.418 223.123 214.175 220.551C219.931 217.979 226.189 216.693 232.946 216.693C239.954 216.693 246.524 218.01 252.656 220.645C258.788 223.279 264.106 226.855 268.612 231.371C273.117 235.888 276.684 241.219 279.312 247.366C281.94 253.513 283.254 260.037 283.254 266.937C283.254 273.836 281.94 280.328 279.312 286.412C276.684 292.497 273.117 297.797 268.612 302.313C264.106 306.83 258.788 310.405 252.656 313.039C246.524 315.674 239.954 316.991 232.946 316.991C226.188 316.991 219.9 315.705 214.081 313.133C208.262 310.562 203.162 307.08 198.782 302.689V314.733H180.01V183.01H198.97ZM201.128 279.921C202.817 283.935 205.164 287.448 208.168 290.459C211.171 293.47 214.675 295.853 218.68 297.61C222.685 299.366 227.002 300.244 231.632 300.244C236.138 300.244 240.392 299.366 244.397 297.61C248.401 295.853 251.874 293.47 254.815 290.459C257.756 287.448 260.102 283.935 261.854 279.921C263.606 275.906 264.482 271.578 264.482 266.937C264.482 262.295 263.606 257.935 261.854 253.858C260.102 249.781 257.756 246.237 254.815 243.226C251.874 240.216 248.402 237.863 244.397 236.17C240.392 234.476 236.137 233.629 231.632 233.629C227.127 233.629 222.872 234.476 218.868 236.17C214.863 237.864 211.359 240.216 208.355 243.226C205.352 246.237 202.974 249.781 201.222 253.858C199.471 257.935 198.594 262.295 198.594 266.937C198.594 271.578 199.439 275.906 201.128 279.921ZM293.952 247.555C296.454 241.533 299.896 236.233 304.276 231.654C308.656 227.075 313.85 223.468 319.857 220.834C325.864 218.199 332.371 216.882 339.379 216.882C346.262 216.882 352.644 218.137 358.526 220.646C364.408 223.155 369.476 226.636 373.731 231.09C377.986 235.543 381.303 240.812 383.68 246.896C386.058 252.981 387.246 259.598 387.246 266.749V272.959H309.345C309.971 276.848 311.222 280.455 313.099 283.779C314.977 287.103 317.322 289.989 320.138 292.435C322.954 294.882 326.145 296.795 329.712 298.174C333.279 299.554 337.064 300.244 341.069 300.244C352.457 300.244 361.655 295.54 368.663 286.131L382.366 296.292C377.611 302.69 371.729 307.709 364.721 311.346C357.713 314.984 349.829 316.803 341.069 316.803C333.936 316.803 327.272 315.549 321.077 313.04C314.883 310.531 309.502 307.018 304.934 302.502C300.366 297.985 296.768 292.685 294.14 286.601C291.512 280.517 290.198 273.899 290.198 266.748C290.197 259.974 291.449 253.576 293.952 247.555ZM320.326 240.121C315.007 244.575 311.472 250.502 309.72 257.904H368.1C366.473 250.502 363 244.575 357.681 240.121C352.363 235.668 346.137 233.441 339.004 233.441C331.87 233.441 325.645 235.668 320.326 240.121ZM422.724 242.285C418.719 246.676 416.717 252.635 416.717 260.162V314.734H397.757V218.763H416.529V230.619C418.906 226.73 422.004 223.656 425.821 221.398C429.637 219.139 434.174 218.01 439.43 218.01H446V235.699H438.116C431.859 235.699 426.728 237.894 422.724 242.285Z" fill="#010202"/>
</g>
<defs>
<clipPath id="clip0_1215_1406">
<rect width="385" height="134" fill="white" transform="translate(61 183)"/>
</clipPath>
</defs>
</svg>
