<svg width="500" height="500" viewBox="0 0 500 500" fill="none" xmlns="http://www.w3.org/2000/svg">
<rect width="500" height="500" fill="white"/>
<path fill-rule="evenodd" clip-rule="evenodd" d="M401.957 271.429V257.325C402.851 258.946 403.343 260.976 403.343 264.123C403.345 267.37 402.851 269.603 401.957 271.429ZM401.957 225.255C402.451 225.357 403.047 225.559 403.641 225.967C404.733 226.576 405.33 227.792 405.828 228.606C406.322 229.521 424.396 279.347 424.396 279.347C424.396 279.347 424.2 280.563 422.609 284.522C421.023 288.481 419.63 290.002 418.043 290.713C416.452 291.425 415.26 290.816 414.368 290.409C413.375 289.899 412.679 288.481 409.7 288.481C406.72 288.481 404.533 290.409 404.438 292.235C404.438 294.468 405.434 295.989 408.211 297.31C410.995 298.526 415.462 298.224 419.334 295.686C423.107 293.251 424.894 290.309 425.989 287.669C426.785 285.945 444.957 235.1 445.451 233.682C445.949 232.363 446.841 229.925 447.736 228.504C448.728 226.983 449.424 226.271 450.221 225.662C451.411 224.645 453 224.545 453 224.545V223.531H438.006V224.545C438.006 224.545 438.998 224.648 439.592 224.952C440.189 225.459 440.783 225.969 441.183 227.083C441.579 228.199 441.579 229.723 441.183 231.142C440.783 232.361 430.158 263.009 430.158 263.009C430.158 263.009 419.036 229.721 418.835 229.114C418.635 228.506 418.537 227.49 418.635 226.778C418.835 225.967 419.928 225.359 420.622 224.952C421.521 224.545 422.711 224.445 422.711 224.445V223.531H401.957V225.255ZM401.957 223.529V225.252C401.16 224.948 400.664 224.948 400.664 224.948V223.529H401.957ZM401.957 257.325C401.258 256.006 400.366 254.989 399.271 253.773C396.79 251.133 392.122 247.988 387.559 245.249C382.989 242.406 380.11 241.494 378.218 238.143C376.334 234.896 377.328 232.258 378.218 230.835C379.117 229.416 381.202 227.285 384.277 227.285C387.359 227.285 389.739 228.399 392.122 230.228C395.004 232.461 395.793 233.577 397.482 236.215C398.069 237.163 398.6 238.147 399.073 239.159H400.065L399.371 223.531H398.279C398.279 223.531 398.078 225.255 396.888 225.762C395.6 226.169 395.302 226.169 394.007 225.762C392.816 225.357 389.539 223.531 384.871 223.531C380.305 223.531 375.437 225.357 372.358 228.606C369.083 232.053 367.89 235.1 367.89 238.755C367.89 242.506 369.08 247.379 372.26 250.019C375.437 252.657 380.105 255.397 383.285 257.225C386.462 259.051 391.228 262.502 392.22 265.242C393.115 267.982 392.919 271.127 391.03 273.664C389.043 276.1 386.362 277.621 381.694 276.202C376.928 274.781 375.439 273.155 373.154 269.706C370.869 266.156 369.879 262.298 369.879 262.298L368.489 262.4L369.187 280.868L370.378 280.765C370.378 280.765 371.072 278.737 372.961 278.433C375.442 277.925 375.442 278.433 377.922 279.449C380.31 280.563 382.693 280.765 386.662 280.765C390.636 280.765 396.592 278.533 399.273 275.388C400.468 274.071 401.363 272.853 401.959 271.432V257.325H401.957ZM297.387 280.258V268.082C302.649 272.648 307.517 271.936 312.083 269.908C317.345 267.473 320.427 259.76 320.427 259.76H321.715C321.715 259.76 321.715 265.038 316.453 272.241C311.589 278.94 304.541 280.258 299.472 280.361C298.876 280.461 298.181 280.361 297.387 280.258ZM297.387 245.346V240.983H311.79C311.79 240.983 311.887 236.212 309.7 231.951C307.518 227.588 304.34 226.671 302.351 226.671C301.063 226.671 299.274 226.978 297.385 228.297V223.527C299.247 222.918 301.19 222.609 303.145 222.61C310.893 222.815 315.659 226.771 319.13 231.746C322.707 237.024 322.507 245.244 322.507 245.244L297.387 245.346ZM360.35 239.157L359.651 223.529H358.659C358.659 223.529 358.458 225.252 357.17 225.76C355.98 226.167 355.579 226.167 354.387 225.76C353.094 225.355 349.816 223.529 345.148 223.529C340.583 223.529 335.715 225.355 332.64 228.604C329.36 232.051 328.172 235.098 328.172 238.752C328.172 242.504 329.358 247.377 332.537 250.017C335.817 252.654 340.383 255.394 343.562 257.222C346.739 259.048 351.608 262.5 352.502 265.24C353.494 267.98 353.294 271.124 351.307 273.662C349.423 276.097 346.742 277.618 341.976 276.2C337.205 274.778 335.717 273.153 333.432 269.703C331.249 266.154 330.257 262.295 330.257 262.295L328.866 262.398L329.462 280.865L330.653 280.763C330.653 280.763 331.347 278.735 333.236 278.43C335.717 277.923 335.819 278.43 338.202 279.447C340.585 280.561 343.066 280.763 347.04 280.763C351.014 280.763 356.872 278.53 359.651 275.386C362.332 272.139 363.625 269.703 363.625 264.121C363.625 258.439 362.034 256.411 359.553 253.771C357.17 251.131 352.4 247.986 347.836 245.246C343.266 242.404 340.485 241.492 338.598 238.14C336.714 234.893 337.704 232.256 338.598 230.832C339.395 229.414 341.48 227.283 344.554 227.283C347.636 227.283 350.119 228.397 352.4 230.225C355.281 232.458 356.173 233.575 357.862 236.212C358.756 237.633 359.448 239.157 359.448 239.157H360.35ZM297.387 223.529V228.299C296.349 229.131 295.444 230.124 294.706 231.242C292.123 235.098 291.629 240.983 291.629 240.983H297.385V245.346H290.93C290.93 245.346 290.734 251.843 291.131 254.178C291.629 257.525 291.825 262.498 296.393 267.166C296.691 267.473 297.087 267.775 297.385 268.082V280.258C294.606 279.851 290.93 278.433 287.753 275.386V229.721C290.439 226.878 293.716 224.645 297.387 223.529ZM287.753 229.721V275.388C287.157 274.779 286.563 274.171 285.966 273.462V231.851L287.753 229.721ZM285.966 231.851V273.462C284.678 271.836 283.583 269.808 282.691 267.475L282.393 266.561V238.245C283.287 236.115 284.478 233.882 285.966 231.851ZM282.393 238.245V266.561C280.606 261.483 279.912 257.12 279.912 252.859C279.912 248.9 280.509 245.146 281.596 240.985C281.797 240.071 282.095 239.157 282.393 238.245ZM275.542 279.344V278.23C276.535 278.737 277.129 278.737 277.129 278.737V279.347H275.542V279.344ZM275.542 278.23V279.344H274.152V277.111C274.65 277.618 275.142 277.925 275.542 278.23ZM274.152 277.114V279.347H272.067V233.577C272.463 235.301 272.565 236.724 272.565 237.126V272.343C272.565 272.343 272.565 275.388 273.854 276.809C273.951 276.909 274.049 277.014 274.152 277.114ZM272.067 233.577V279.347H271.666V232.256C271.867 232.663 271.965 233.17 272.067 233.577ZM271.666 232.256V279.344H271.172V230.835C271.368 231.344 271.569 231.751 271.666 232.256ZM271.172 230.835V279.344H269.982V228.604C270.476 229.314 270.874 230.125 271.172 230.835ZM269.982 228.604V279.344H268.293V226.674C268.293 226.776 268.391 226.776 268.391 226.878C268.985 227.385 269.484 227.992 269.982 228.604ZM268.293 226.674V279.347H267.201V225.864C267.595 226.167 267.897 226.371 268.293 226.674ZM267.199 225.862V279.344H266.803V225.557C266.9 225.66 267.101 225.76 267.199 225.862ZM266.803 225.557V279.344H265.51V224.643C265.91 224.95 266.404 225.255 266.803 225.557ZM265.51 224.645V279.347H261.839V223.022C263.127 223.427 264.32 223.934 265.51 224.645ZM261.839 223.022V279.347H260.746V275.186C261.245 273.767 261.245 272.343 261.245 272.343V240.478C261.245 240.478 261.44 238.447 260.746 236.215V222.717C261.14 222.82 261.438 222.922 261.839 223.022ZM260.744 222.717V236.215C260.411 234.543 259.578 233.018 258.361 231.851V222.413C259.158 222.413 260.052 222.615 260.744 222.717ZM260.744 275.183V279.344H258.361V278.128C258.859 277.926 259.353 277.416 259.947 276.809C260.348 276.3 260.646 275.793 260.744 275.183ZM258.361 222.413V231.851C258.161 231.649 257.965 231.444 257.765 231.344C256.566 230.396 255.174 229.737 253.691 229.416V222.515C254.089 222.515 254.487 222.413 254.883 222.413C256.04 222.31 257.204 222.31 258.361 222.413ZM258.361 278.128V279.344H256.672V278.735C256.672 278.737 257.371 278.737 258.361 278.128ZM253.693 222.515V229.416H253.297V222.615C253.395 222.615 253.593 222.515 253.693 222.515ZM253.297 222.615V229.416C252.844 229.291 252.378 229.223 251.909 229.214V222.922C252.403 222.717 252.801 222.717 253.297 222.615ZM251.906 222.922V229.214C251.012 229.214 250.117 229.314 249.323 229.416V223.734C250.12 223.427 250.914 223.124 251.906 222.922ZM249.325 223.731V229.414C248.879 229.487 248.445 229.624 248.035 229.821C247.539 229.921 247.04 230.225 246.546 230.43V225.255C247.338 224.748 248.233 224.238 249.325 223.731ZM246.544 225.255V230.432C245.782 230.995 245.083 231.641 244.459 232.361V226.983C244.459 226.983 244.557 226.881 244.657 226.881C245.243 226.288 245.874 225.745 246.544 225.255ZM244.459 279.344V278.328C245.254 278.735 245.75 278.735 245.75 278.735V279.344H244.459ZM244.459 226.981V232.358C243.845 232.998 243.311 233.714 242.868 234.489C240.784 237.836 241.182 241.287 241.182 241.287V272.343C241.182 272.343 241.182 275.388 242.472 276.809C243.169 277.621 243.863 278.128 244.459 278.33V279.347H238.897V223.629C239.593 223.02 239.892 222.715 239.892 222.715H241.182V231.037C241.182 231.039 242.177 229.214 244.459 226.981ZM238.897 223.629V279.344H230.257V228.704C230.954 228.399 231.648 228.095 232.442 227.69C234.755 226.625 236.925 225.26 238.897 223.629ZM230.257 228.704V279.344H230.059V228.704H230.257ZM230.059 228.704V279.344H225.291V278.735C225.291 278.735 226.78 278.837 228.569 276.807C229.859 275.386 229.859 272.341 229.859 272.341V235.503C229.859 235.503 229.759 233.982 228.07 232.558C226.582 231.342 224.695 231.542 224.695 231.542V230.73C224.697 230.735 226.684 230.125 230.059 228.704ZM217.944 279.344V276.097C218.142 276.3 218.242 276.504 218.44 276.707C220.229 278.84 221.718 278.635 221.718 278.635V279.347H217.944V279.344ZM217.944 276.097V279.344H213.276V227.078C216.852 230.63 217.15 236.212 217.15 237.124V272.239C217.15 272.239 217.15 274.576 217.944 276.097ZM213.276 227.081V279.347H210.001V224.543C210.993 225.152 211.986 225.964 212.98 226.776L213.276 227.081ZM210.001 224.543V279.347H201.261V278.635C201.261 278.635 202.75 278.84 204.539 276.707C205.731 275.288 205.829 272.241 205.829 272.241V240.376C205.829 240.376 206.325 234.389 202.354 231.242C199.177 228.807 195.203 228.909 192.524 229.721C189.843 230.635 187.956 233.372 187.36 234.491C185.273 237.838 185.673 241.29 185.673 241.29V272.243C185.673 272.243 185.673 275.29 186.961 276.709C188.75 278.842 190.239 278.637 190.239 278.637V279.349H169.782V278.637C169.782 278.637 171.271 278.842 173.058 276.709C174.348 275.29 174.348 272.243 174.348 272.243V235.405C174.348 235.405 174.15 233.986 172.461 232.563C171.073 231.346 169.086 231.546 169.086 231.546V230.632C169.086 230.632 172.165 229.821 176.831 227.69C181.299 225.66 184.378 222.613 184.378 222.613H185.669V231.037C185.669 231.037 186.661 229.007 189.044 226.774C190.931 225.15 194.01 222.817 199.372 222.308C203.446 222.005 206.922 222.717 210.001 224.543ZM145.65 280.258V270.717C149.224 272.139 152.701 271.327 155.979 269.906C161.241 267.47 164.32 259.655 164.32 259.655H165.611C165.611 259.655 165.611 265.033 160.349 272.239C156.177 277.926 150.418 279.751 145.65 280.258ZM145.65 245.246V240.883H155.681C155.681 240.883 155.778 236.212 153.593 231.849C151.411 227.588 148.234 226.671 146.244 226.671H145.648V222.715C146.046 222.613 146.542 222.613 147.039 222.613C154.784 222.715 159.452 226.671 163.027 231.749C166.601 237.026 166.403 245.246 166.403 245.246H145.65ZM145.65 222.717V226.674C143.663 226.878 140.982 227.692 138.599 231.242C136.018 235.098 135.52 240.885 135.52 240.885H145.65V245.249L134.826 245.349C134.826 245.349 134.628 251.845 135.024 254.18C135.52 257.427 135.718 262.5 140.286 267.068C142.072 268.894 143.861 270.113 145.648 270.72V280.261C144.854 280.363 144.059 280.363 143.365 280.363C139.294 280.463 130.356 277.823 126.582 267.475C122.809 257.122 123.305 249.714 125.392 240.985C127.577 232.358 135.522 223.327 145.65 222.717ZM102.354 240.276V272.953C102.354 272.953 102.354 275.186 100.966 276.809C99.7735 278.128 97.5886 278.533 97.5886 278.533V279.142H120.428V278.533C120.428 278.533 118.245 278.128 117.151 276.809C115.76 275.288 115.562 272.953 115.562 272.953V207.189C115.562 207.189 115.66 205.261 117.05 203.638C118.143 202.319 120.328 202.014 120.328 202.014V201.302H97.4884V202.014C97.4884 202.014 99.5732 202.419 100.766 203.638C102.254 205.261 102.354 207.189 102.354 207.189V234.591H71.0735V207.189C71.0735 207.189 71.1736 204.956 72.562 203.435C73.7546 202.114 75.8394 201.709 75.8394 201.709V201H53V201.709C53 201.709 55.1849 202.114 56.2774 203.435C57.668 204.956 57.866 207.189 57.866 207.189V272.95C57.866 272.95 57.866 275.183 56.4754 276.704C55.1849 278.228 53.1001 278.53 53.1001 278.53V279.14H75.9395V278.53C75.9395 278.53 73.7569 278.023 72.562 276.704C71.1736 275.183 71.0735 272.95 71.0735 272.95V240.273H102.354V240.276Z" fill="black"/>
</svg>
