<svg width="500" height="500" viewBox="0 0 500 500" fill="none" xmlns="http://www.w3.org/2000/svg">
<rect width="500" height="500" fill="white"/>
<path d="M67 200V300.594H83.4287V255.824C113.365 297.093 161.921 302.804 182.366 300.594V200H166.12V283.644C98.2145 276.274 82.6985 224.872 83.4287 200H67ZM207.374 200H190.58C189.302 243.112 224.533 259.877 242.239 262.641V300.409H259.946V262.641C303.938 254.166 312.883 217.318 311.97 200H294.994C294.994 263.746 205.366 260.43 207.374 200ZM334.057 200H317.811C314.525 226.346 335.153 244.033 345.74 249.56C320.184 264.115 315.986 289.355 317.081 300.225H334.057C336.978 240.348 418.209 249.56 415.653 300.225H431.717C433.907 274.985 414.375 256.008 404.153 249.56C429.709 234.821 433.177 210.317 431.717 200H415.653C413.098 261.167 330.589 249.191 334.057 200Z" fill="black"/>
</svg>
