<svg width="500" height="500" viewBox="0 0 500 500" fill="none" xmlns="http://www.w3.org/2000/svg">
<rect width="500" height="500" fill="white"/>
<path d="M187.629 183.846H212.066V306.077H187.629V183.846Z" fill="black"/>
<path d="M228.663 183.846H253.1V306.077H228.663V183.846Z" fill="black"/>
<path d="M321.973 218.848H346.41V269.928C346.41 295.257 329.978 309.224 309.391 309.224H304.861C284.25 309.224 267.841 295.14 267.841 269.928V218.848H292.278V270.984C292.278 280.75 298.757 286.524 306.363 286.524H307.771C315.447 286.524 321.856 280.75 321.856 270.984L321.973 218.848Z" fill="black"/>
<path d="M359.533 306.08V254.906C359.533 229.248 376.81 215.633 397.42 215.633H400.214C421.693 215.633 438.97 231.337 438.97 255.798V257.887L414.698 258.943L414.533 255.445C414.017 243.403 407.022 238.497 399.51 238.497H398.829C391.129 238.497 383.97 243.732 383.97 255.093V306.08H359.533Z" fill="black"/>
<path d="M124.248 286.266C117.973 286.266 111.954 283.773 107.517 279.336C103.079 274.898 100.586 268.879 100.586 262.604C100.586 256.328 103.079 250.31 107.517 245.872C111.954 241.435 117.973 238.942 124.248 238.942C138.145 238.942 148.591 248.848 148.591 262.604C148.591 276.36 138.145 286.266 124.248 286.266ZM121.901 308.168C146.784 308.168 160.681 293.731 161.549 273.895C162.089 265.022 171.995 268.848 171.995 262.604C171.902 236.336 150.61 216.5 124.061 216.5C97.5111 216.5 76.2197 236.336 76.2197 262.604C76.1245 268.616 77.2388 274.585 79.4964 280.158C81.754 285.73 85.1088 290.792 89.3614 295.043C93.614 299.293 98.6776 302.645 104.251 304.9C109.825 307.155 115.795 308.266 121.807 308.168H121.901ZM151.807 306.078H171.995V262.416H149.976L151.807 306.078Z" fill="black"/>
</svg>
