<svg width="500" height="500" viewBox="0 0 500 500" fill="none" xmlns="http://www.w3.org/2000/svg">
<rect width="500" height="500" fill="white"/>
<path d="M124.713 246.701H146.851V222.171C146.851 215.321 143.615 211.858 136.995 211.858H134.495C127.949 211.858 124.639 215.321 124.639 222.171V246.701H124.713ZM124.713 262.392L124.787 289.353C124.787 296.204 128.096 299.592 134.642 299.592H137.51C144.056 299.592 147.365 296.204 147.365 289.353V276.093H162.443V288.69C162.443 306.001 154.058 314.841 137.437 314.841H134.127C117.505 314.841 109.121 306.075 109.121 290.752V224.823C109.121 205.45 117.505 196.684 134.127 196.684H137.437C154.058 196.684 162.443 205.45 162.443 222.761L162.369 262.318H124.713V262.392Z" fill="black"/>
<path d="M188.11 293.405C192.376 297.235 197.304 299.372 202.452 299.372C208.189 299.372 211.498 296.572 211.498 289.943V221.435C211.498 214.805 208.189 212.006 202.452 212.006C197.304 212.006 192.376 214.143 188.11 217.973V293.405ZM172.519 198.01H188.11V205.524C191.788 201.472 198.113 196.758 207.159 196.758C220.471 196.758 227.017 205.966 227.017 219.667V292.005C227.017 305.707 220.471 314.915 207.159 314.915C198.113 314.915 191.788 310.421 188.11 306.591V343.865H172.519V198.01Z" fill="black"/>
<path d="M273.719 294.068V255.984L259.598 261.582C253.861 263.939 252.023 266.96 252.023 273.589V291.121C252.023 296.72 254.67 299.445 259.598 299.445C264.305 299.445 268.644 297.751 273.719 294.068ZM236.431 273.295C236.431 258.93 240.917 253.184 252.832 248.912L273.719 241.398V222.172C273.719 215.321 270.409 211.712 263.864 211.712H261.363C254.817 211.712 251.508 215.321 251.508 222.172V238.525H236.357V222.835C236.357 205.524 244.742 196.758 261.363 196.758H264.305C280.927 196.758 289.311 205.524 289.311 222.835V313.589H273.719V306.296C269.453 310.569 263.643 314.841 254.67 314.841C242.167 314.841 236.431 307.327 236.431 294.51V273.295Z" fill="black"/>
<path d="M352.267 313.588H336.675V220.477C336.675 214.731 334.027 212.153 329.32 212.153C325.055 212.153 320.495 213.847 314.979 217.899V313.588H299.387V198.01H314.979V205.523C319.539 201.03 325.422 196.684 334.027 196.684C342.044 196.684 347.339 200.146 350.208 206.113C355.797 201.177 362.343 196.684 371.316 196.684C383.377 196.684 389.555 204.418 389.555 217.015V313.515H373.963V220.477C373.963 214.731 371.316 212.153 366.609 212.153C362.343 212.153 357.783 213.847 352.267 217.899V313.588Z" fill="black"/>
<path d="M49.1804 248.396V264.012L89.1899 303.275V281.544L63.0072 255.983L89.1899 229.906V208.617L49.1804 248.396Z" fill="black"/>
<path d="M409.339 229.906L435.522 255.983L409.339 281.618V303.275L449.349 264.012V248.396L409.339 208.617V229.906Z" fill="black"/>
</svg>
