<?xml version="1.0" encoding="utf-8"?>
<!-- Generator: Adobe Illustrator 23.0.4, SVG Export Plug-In . SVG Version: 6.00 Build 0)  -->
<svg version="1.1" id="Layer_1" xmlns="http://www.w3.org/2000/svg" xmlns:xlink="http://www.w3.org/1999/xlink" x="0px" y="0px"
	 viewBox="0 0 500 500" style="enable-background:new 0 0 500 500;" xml:space="preserve">
<style type="text/css">
	.st0{fill:#FFFFFF;}
	.st1{fill-rule:evenodd;clip-rule:evenodd;}
</style>
<rect y="0" class="st0" width="500" height="500"/>
<path class="st1" d="M107.2,260.4c1.5,1.1,3.1,1.9,4.9,2.5c3.4,1.1,7.2,1.1,10.6,0c1.8-0.6,3.4-1.4,4.9-2.5c1.5-1.1,2.8-2.4,3.9-3.9
	c2.1-3,3.3-6.5,3.3-10.2c0-1.8-0.3-3.6-0.8-5.3c-1.1-3.5-3.4-6.6-6.4-8.8c-1.5-1.1-3.1-1.9-4.9-2.5c-3.5-1.1-7.2-1.1-10.6,0
	c-3.5,1.1-6.6,3.4-8.8,6.4c-1.1,1.5-1.9,3.1-2.5,4.9c-0.5,1.7-0.8,3.5-0.8,5.3c0,1.8,0.3,3.6,0.8,5.3
	C101.9,255.2,104.2,258.3,107.2,260.4z M144.9,161.2h-55l27.6,62.4L144.9,161.2z"/>
<path class="st1" d="M162.3,311.7c0,1.7-0.3,3.4-1,4.9c-1.3,3.2-3.8,5.7-7,7c-1.6,0.6-3.2,1-4.9,1h-2.6c-1.7,0-3.4-0.3-4.9-1
	c-3.2-1.3-5.7-3.8-7-7c-0.6-1.6-1-3.2-1-4.9l0-29.3l-29.8,0v22.1c0,4.5,0.9,9,2.6,13.1c1.7,4.2,4.3,8,7.4,11.1
	c3.2,3.2,7,5.7,11.1,7.4c4.2,1.7,8.6,2.6,13.1,2.6h18.4c4.5,0,9-0.9,13.1-2.6c4.2-1.7,8-4.3,11.1-7.4c3.2-3.2,5.7-7,7.4-11.1
	c1.7-4.2,2.6-8.6,2.6-13.1V161.4l-28.9,0L162.3,311.7z M382.3,282.5l0,26c0,1.7-0.3,3.4-1,4.9c-0.7,1.6-1.6,3-2.8,4.2
	c-1.2,1.2-2.6,2.1-4.2,2.8c-1.6,0.6-3.2,1-4.9,1h-2.6c-1.7,0-3.4-0.3-4.9-1c-1.6-0.6-3-1.6-4.2-2.8c-1.2-1.2-2.2-2.6-2.8-4.2
	c-0.6-1.6-1-3.2-1-4.9l0-147.1l-28.9,0l0,173.8h85.1l0-52.8L382.3,282.5z M301,256.4c-1.4-3.4-3.5-6.4-6.1-9
	c-2.4-2.4-5.3-4.3-8.6-5.5c2.7-1.3,5.1-3,7.3-5c2.2-2.1,4.1-4.5,5.4-7.3c1.3-2.8,2-5.8,2-8.9l0-31.6c0-3.7-0.7-7.3-2.1-10.7
	c-1.4-3.4-3.5-6.5-6-9c-2.6-2.6-5.7-4.6-9-6c-3.4-1.4-7-2.1-10.7-2.1h-57.4v174h59.6c5.5,0,10.9-1.6,15.5-4.7
	c4.6-3.1,8.2-7.4,10.3-12.5c1.4-3.4,2.1-7,2.1-10.7c0-13.3,0-26.7,0-40C303.2,263.5,302.4,259.9,301,256.4z M243.7,176.1l15.1-0.1
	c1.7,0,3.4,0.3,4.9,1c1.6,0.6,3,1.6,4.2,2.8c1.2,1.2,2.2,2.6,2.8,4.2c0.6,1.6,1,3.2,1,4.9l0.1,34.9c0,2.1-0.6,4.2-1.8,6
	c-1.2,1.8-2.9,3.1-4.8,3.9c-1.3,0.5-2.7,0.8-4.1,0.8l-17.4,0.1V176.1z M272.1,312.6c-0.5,1.3-1.3,2.5-2.3,3.5s-2.2,1.8-3.5,2.3
	c-1.3,0.5-2.7,0.8-4.1,0.8l-18.5,0.1v-69l16.2-0.1c1.7,0,3.4,0.3,4.9,1c1.6,0.6,3,1.6,4.2,2.8c1.2,1.2,2.2,2.6,2.8,4.2
	c0.6,1.6,1,3.2,1,4.9l0.1,45.4C272.9,309.9,272.6,311.3,272.1,312.6z"/>
</svg>
