<svg width="500" height="500" viewBox="0 0 500 500" fill="none" xmlns="http://www.w3.org/2000/svg">
<g clip-path="url(#clip0_1225_919)">
<rect width="500" height="500" fill="white"/>
<g clip-path="url(#clip1_1225_919)">
<path d="M436.064 252.231V260.671H442.13V269.045C442.149 269.793 442.108 270.6 441.976 271.246C441.735 272.808 440.218 275.467 435.912 275.467C431.632 275.467 430.141 272.808 429.883 271.246C429.774 270.6 429.728 269.793 429.728 269.045V242.596C429.728 241.661 429.792 240.637 429.995 239.862C430.289 238.452 431.567 235.672 435.88 235.672C440.407 235.672 441.537 238.603 441.796 239.862C441.966 240.695 441.976 242.094 441.976 242.094V245.306H456.881V243.407C456.881 243.407 456.949 241.426 456.768 239.577C455.648 228.721 446.5 225.287 436.011 225.287C425.503 225.287 416.541 228.753 415.235 239.577C415.117 240.567 414.937 242.347 414.937 243.407V267.737C414.937 268.797 414.972 269.617 415.173 271.554C416.146 282.111 425.503 285.853 435.969 285.853C446.5 285.853 455.793 282.111 456.783 271.554C456.958 269.617 456.976 268.797 457 267.737V252.231H436.064ZM333.29 226.844H318.322V269.655C318.345 270.401 318.322 271.239 318.19 271.854C317.878 273.291 316.632 276.057 312.503 276.057C308.426 276.057 307.148 273.291 306.859 271.854C306.71 271.239 306.691 270.401 306.71 269.655V226.844H291.746V268.326C291.727 269.396 291.813 271.58 291.877 272.152C292.91 282.962 301.623 286.472 312.503 286.472C323.404 286.472 332.111 282.962 333.163 272.152C333.246 271.58 333.355 269.396 333.29 268.326V226.844ZM195.759 226.844L188.292 272.08L180.83 226.844H156.685L155.405 284.714H170.197L170.597 231.142L180.775 284.714H195.782L205.969 231.142L206.371 284.714H221.2L219.876 226.844H195.759ZM106.363 226.844L95.3998 284.714H111.387L119.649 231.142L127.712 284.714H143.589L132.671 226.844H106.363ZM385.602 273.436L371.664 226.844H349.701V284.11H364.23L363.386 236.027L378.355 284.11H399.419V226.844H384.795L385.602 273.436ZM251.211 241.904C250.948 240.762 251.024 239.547 251.16 238.913C251.583 237.06 252.856 235.04 256.524 235.04C259.942 235.04 261.946 237.123 261.946 240.25V243.789H276.537V239.755C276.537 227.286 265.104 225.328 256.827 225.328C246.402 225.328 237.888 228.688 236.333 238.07C235.922 240.623 235.82 242.89 236.474 245.782C239.009 257.48 259.838 260.874 262.861 268.272C263.394 269.673 263.242 271.461 262.97 272.514C262.517 274.439 261.192 276.375 257.265 276.375C253.582 276.375 251.366 274.305 251.366 271.185L251.361 265.631H235.656V270.046C235.656 282.838 245.903 286.698 256.94 286.698C267.51 286.698 276.241 283.166 277.642 273.592C278.31 268.645 277.806 265.423 277.537 264.21C275.09 252.211 252.891 248.602 251.211 241.904M58.7313 241.762C58.4448 240.596 58.5117 239.365 58.6713 238.723C59.0756 236.879 60.3561 234.823 64.0883 234.823C67.55 234.823 69.5882 236.927 69.5882 240.079V243.66H84.3506V239.595C84.3506 227.006 72.7428 225 64.3748 225C53.8622 225 45.2723 228.412 43.7007 237.862C43.2705 240.456 43.1968 242.738 43.8185 245.662C46.3811 257.494 67.4155 260.915 70.4758 268.401C71.0489 269.793 70.8756 271.58 70.5914 272.674C70.1057 274.619 68.7705 276.583 64.8111 276.583C61.1138 276.583 58.9023 274.478 58.9023 271.314L58.8818 265.746H43V270.171C43 283.109 53.3925 287 64.5154 287C75.2089 287 83.9903 283.437 85.4229 273.752C86.135 268.76 85.6007 265.511 85.3606 264.279C82.8626 252.134 60.4162 248.536 58.7313 241.762" fill="black"/>
</g>
</g>
<defs>
<clipPath id="clip0_1225_919">
<rect width="500" height="500" fill="white"/>
</clipPath>
<clipPath id="clip1_1225_919">
<rect width="414" height="62" fill="white" transform="translate(43 225)"/>
</clipPath>
</defs>
</svg>
