<svg width="161" height="86" viewBox="0 0 161 86" fill="none" xmlns="http://www.w3.org/2000/svg">
<mask id="mask0_1231_925" style="mask-type:alpha" maskUnits="userSpaceOnUse" x="0" y="0" width="161" height="86">
<rect y="0.966797" width="161" height="84.9156" rx="16.5128" fill="#41A1D4"/>
</mask>
<g mask="url(#mask0_1231_925)">
<rect y="0.966797" width="161" height="84.9156" rx="16.5128" fill="#41A1D4"/>
<path d="M8.23096 46.4859C8.22918 36.0914 12.4068 26.1327 19.824 18.8504C27.2411 11.5682 37.2748 7.57392 47.6675 7.76641C59.9812 7.70102 71.7309 12.9231 79.9338 22.107C88.1367 12.9231 99.8864 7.70102 112.2 7.76641C122.593 7.57392 132.626 11.5682 140.044 18.8504C147.461 26.1327 151.638 36.0914 151.637 46.4859C151.637 84.89 105.897 113.887 79.9338 136.831C54.0276 113.693 8.23096 84.9187 8.23096 46.4859Z" fill="#FF97F5"/>
<path d="M28.2729 48.3422C28.2717 40.8531 31.2816 33.678 36.6256 28.4311C41.9696 23.1843 49.1987 20.3065 56.6866 20.4452C65.5585 20.3981 74.024 24.1606 79.9341 30.7774C85.8442 24.1606 94.3097 20.3981 103.182 20.4452C110.669 20.3065 117.899 23.1843 123.243 28.4311C128.587 33.678 131.596 40.8531 131.595 48.3422C131.595 76.0119 98.6406 96.9037 79.9341 113.435C61.2689 96.7642 28.2729 76.0326 28.2729 48.3422Z" fill="#EE5424"/>
<path d="M51.3462 49.3567C51.3455 45.2125 53.0111 41.2421 55.9682 38.3387C58.9253 35.4354 62.9257 33.8429 67.0691 33.9196C71.9785 33.8936 76.663 35.9756 79.9334 39.6371C83.2038 35.9756 87.8883 33.8936 92.7976 33.9196C96.9411 33.8429 100.941 35.4354 103.899 38.3387C106.856 41.2421 108.521 45.2125 108.521 49.3567C108.521 64.668 90.2848 76.2287 79.9334 85.3766C69.6048 76.1515 51.3462 64.6795 51.3462 49.3567Z" fill="#FFD20C"/>
</g>
</svg>
