<svg width="50" height="50" viewBox="0 0 50 50" fill="none" xmlns="http://www.w3.org/2000/svg">
<g clip-path="url(#clip0_1290_1414)">
<rect width="50" height="50" rx="10" fill="#E5E5E5"/>
<path d="M6.86143 16.5744C6.86143 13.307 8.34658 11.5248 11.0199 11.5248C13.3961 11.5248 14.2872 12.713 14.5842 13.9011L14.8813 14.1981H17.2575L17.5546 13.9011C17.2575 11.2278 15.1783 8.85156 11.0199 8.85156C6.5644 8.85156 3.89111 11.8219 3.89111 16.5744C3.89111 21.3269 6.5644 24.2972 11.0199 24.2972C15.1783 24.2972 17.2575 21.9209 17.5546 19.2477L17.2575 18.9506H14.8813L14.5842 19.2477C14.2872 20.4358 13.3961 21.6239 11.0199 21.6239C8.34658 21.6239 6.86143 19.8417 6.86143 16.5744Z" fill="black"/>
<path d="M31.2041 23.7031V15.3863C31.2041 10.9308 29.7189 8.85156 25.2634 8.85156C20.808 8.85156 19.3228 11.2278 19.3228 13.307L19.6199 13.6041H21.9961L22.2931 13.307C22.2931 12.1189 23.1842 11.5248 25.2634 11.5248C27.3427 11.5248 28.2338 12.1189 28.2338 14.1981V14.7922L27.9367 15.0892C27.9367 15.0892 26.7486 14.7922 25.2634 14.7922C21.402 14.7922 18.7288 16.2773 18.7288 19.5447C18.7288 22.515 20.5109 24.2972 23.7783 24.2972C26.7486 24.2972 27.9367 22.515 27.9367 22.515H28.2338L28.5308 23.7031L28.8278 24.0002H30.907L31.2041 23.7031ZM28.2338 18.6536C28.2338 20.4358 26.7486 21.6239 24.3724 21.6239C22.5902 21.6239 21.6991 21.0299 21.6991 19.5447C21.6991 18.0595 22.8872 17.1684 25.5605 17.1684C27.0456 17.1684 27.9367 17.4655 27.9367 17.4655L28.2338 17.7625V18.6536Z" fill="black"/>
<path d="M42.4913 11.5248V9.44563L42.1942 9.1486H41.0061C38.9269 9.1486 38.0358 9.74266 37.1447 10.6338H36.8477L36.5506 9.44563L36.2536 9.1486H34.1744L33.8774 9.44563V23.7031L34.1744 24.0002H36.5506L36.8477 23.7031V16.2773C36.8477 12.713 38.3328 11.8219 40.7091 11.8219H42.1942L42.4913 11.5248Z" fill="black"/>
<path d="M52.5857 15.3863H46.051L45.754 15.0892C45.754 14.1981 46.051 11.5248 49.3183 11.5248C52.5857 11.5248 52.8827 14.1981 52.8827 15.0892L52.5857 15.3863ZM49.6154 24.2972C53.1798 24.2972 55.259 22.218 55.556 19.8417L55.259 19.5447H52.8827L52.5857 19.8417C51.9916 21.3269 50.8035 21.6239 49.6154 21.6239C46.051 21.6239 45.754 18.6536 45.754 18.0595L46.051 17.7625H55.853L56.1501 17.4655V16.5744C56.1501 12.4159 54.0708 8.85156 49.3183 8.85156C44.5658 8.85156 42.4866 12.4159 42.4866 16.5744C42.4866 21.0299 44.8629 24.2972 49.6154 24.2972Z" fill="black"/>
<path d="M67.4233 15.3863H60.8886L60.5916 15.0892C60.5916 14.1981 60.8886 11.5248 64.156 11.5248C67.4233 11.5248 67.7204 14.1981 67.7204 15.0892L67.4233 15.3863ZM64.453 24.2972C68.0174 24.2972 70.0966 22.218 70.3937 19.8417L70.0966 19.5447H67.7204L67.4233 19.8417C66.8293 21.3269 65.6412 21.6239 64.453 21.6239C60.8886 21.6239 60.5916 18.6536 60.5916 18.0595L60.8886 17.7625H70.6907L70.9877 17.4655V16.5744C70.9877 12.4159 68.9085 8.85156 64.156 8.85156C59.4035 8.85156 57.3243 12.4159 57.3243 16.5744C57.3243 21.0299 59.7005 24.2972 64.453 24.2972Z" fill="black"/>
<path d="M81.6669 11.5248V9.44563L81.3699 9.1486H80.1818C78.1026 9.1486 77.2115 9.74266 76.3204 10.6338H76.0233L75.7263 9.44563L75.4293 9.1486H73.35L73.053 9.44563V23.7031L73.35 24.0002H75.7263L76.0233 23.7031V16.2773C76.0233 12.713 77.5085 11.8219 79.8847 11.8219H81.3699L81.6669 11.5248Z" fill="black"/>
<path d="M94.1527 19.8417C94.1527 17.1684 92.6675 15.9803 89.6972 15.3863C86.7269 14.7922 85.5388 14.4952 85.5388 13.01C85.5388 11.8219 86.7269 11.5248 88.2121 11.5248C90.2913 11.5248 90.8853 12.4159 90.8853 13.307L91.1824 13.6041H93.5586L93.8557 13.307C93.8557 10.3367 91.4794 8.85156 88.2121 8.85156C84.0536 8.85156 82.5685 10.9308 82.5685 13.01C82.5685 15.6833 84.3506 16.8714 87.321 17.4655C90.2913 18.0595 91.1824 18.3566 91.1824 19.8417C91.1824 21.0298 90.2913 21.6239 88.2121 21.6239C86.1328 21.6239 85.2417 20.7328 85.2417 19.2477L84.9447 18.9506H82.5685L82.2714 19.2477C82.2714 22.515 84.3506 24.2972 88.2121 24.2972C92.3705 24.2972 94.1527 22.218 94.1527 19.8417Z" fill="black"/>
<path d="M-44.1386 35.5744C-44.1386 32.307 -42.6534 30.5248 -39.9801 30.5248C-37.6039 30.5248 -36.7128 31.713 -36.4158 32.9011L-36.1187 33.1981H-33.7425L-33.4454 32.9011C-33.7425 30.2278 -35.8217 27.8516 -39.9801 27.8516C-44.4356 27.8516 -47.1089 30.8219 -47.1089 35.5744C-47.1089 40.3269 -44.4356 43.2972 -39.9801 43.2972C-35.8217 43.2972 -33.7425 40.9209 -33.4454 38.2477L-33.7425 37.9506H-36.1187L-36.4158 38.2477C-36.7128 39.4358 -37.6039 40.6239 -39.9801 40.6239C-42.6534 40.6239 -44.1386 38.8417 -44.1386 35.5744Z" fill="black"/>
<path d="M-19.7959 42.7031V34.3863C-19.7959 29.9308 -21.2811 27.8516 -25.7366 27.8516C-30.192 27.8516 -31.6772 30.2278 -31.6772 32.307L-31.3801 32.6041H-29.0039L-28.7069 32.307C-28.7069 31.1189 -27.8158 30.5248 -25.7366 30.5248C-23.6573 30.5248 -22.7662 31.1189 -22.7662 33.1981V33.7922L-23.0633 34.0892C-23.0633 34.0892 -24.2514 33.7922 -25.7366 33.7922C-29.598 33.7922 -32.2712 35.2773 -32.2712 38.5447C-32.2712 41.515 -30.4891 43.2972 -27.2217 43.2972C-24.2514 43.2972 -23.0633 41.515 -23.0633 41.515H-22.7662L-22.4692 42.7031L-22.1722 43.0002H-20.093L-19.7959 42.7031ZM-22.7662 37.6536C-22.7662 39.4358 -24.2514 40.6239 -26.6276 40.6239C-28.4098 40.6239 -29.3009 40.0299 -29.3009 38.5447C-29.3009 37.0595 -28.1128 36.1684 -25.4395 36.1684C-23.9544 36.1684 -23.0633 36.4655 -23.0633 36.4655L-22.7662 36.7625V37.6536Z" fill="black"/>
<path d="M-8.50873 30.5248V28.4456L-8.80576 28.1486H-9.99389C-12.0731 28.1486 -12.9642 28.7427 -13.8553 29.6338H-14.1523L-14.4494 28.4456L-14.7464 28.1486H-16.8256L-17.1226 28.4456V42.7031L-16.8256 43.0002H-14.4494L-14.1523 42.7031V35.2773C-14.1523 31.713 -12.6672 30.8219 -10.2909 30.8219H-8.80576L-8.50873 30.5248Z" fill="black"/>
<path d="M1.58569 34.3863H-4.949L-5.24603 34.0892C-5.24603 33.1981 -4.949 30.5248 -1.68165 30.5248C1.58569 30.5248 1.88272 33.1981 1.88272 34.0892L1.58569 34.3863ZM-1.38462 43.2972C2.17976 43.2972 4.25898 41.218 4.55601 38.8417L4.25898 38.5447H1.88272L1.58569 38.8417C0.991631 40.3269 -0.196495 40.6239 -1.38462 40.6239C-4.949 40.6239 -5.24603 37.6536 -5.24603 37.0595L-4.949 36.7625H4.85304L5.15007 36.4655V35.5744C5.15007 31.4159 3.07085 27.8516 -1.68165 27.8516C-6.43415 27.8516 -8.51337 31.4159 -8.51337 35.5744C-8.51337 40.0299 -6.13712 43.2972 -1.38462 43.2972Z" fill="black"/>
<path d="M16.4233 34.3863H9.88865L9.59162 34.0892C9.59162 33.1981 9.88865 30.5248 13.156 30.5248C16.4233 30.5248 16.7204 33.1981 16.7204 34.0892L16.4233 34.3863ZM13.453 43.2972C17.0174 43.2972 19.0966 41.218 19.3937 38.8417L19.0966 38.5447H16.7204L16.4233 38.8417C15.8293 40.3269 14.6412 40.6239 13.453 40.6239C9.88865 40.6239 9.59162 37.6536 9.59162 37.0595L9.88865 36.7625H19.6907L19.9877 36.4655V35.5744C19.9877 31.4159 17.9085 27.8516 13.156 27.8516C8.40349 27.8516 6.32427 31.4159 6.32427 35.5744C6.32427 40.0299 8.70052 43.2972 13.453 43.2972Z" fill="black"/>
<path d="M30.6669 30.5248V28.4456L30.3699 28.1486H29.1818C27.1026 28.1486 26.2115 28.7427 25.3204 29.6338H25.0233L24.7263 28.4456L24.4293 28.1486H22.35L22.053 28.4456V42.7031L22.35 43.0002H24.7263L25.0233 42.7031V35.2773C25.0233 31.713 26.5085 30.8219 28.8847 30.8219H30.3699L30.6669 30.5248Z" fill="black"/>
<path d="M43.1527 38.8417C43.1527 36.1684 41.6675 34.9803 38.6972 34.3863C35.7269 33.7922 34.5388 33.4952 34.5388 32.01C34.5388 30.8219 35.7269 30.5248 37.2121 30.5248C39.2913 30.5248 39.8853 31.4159 39.8853 32.307L40.1824 32.6041H42.5586L42.8557 32.307C42.8557 29.3367 40.4794 27.8516 37.2121 27.8516C33.0536 27.8516 31.5685 29.9308 31.5685 32.01C31.5685 34.6833 33.3506 35.8714 36.321 36.4655C39.2913 37.0595 40.1824 37.3566 40.1824 38.8417C40.1824 40.0298 39.2913 40.6239 37.2121 40.6239C35.1328 40.6239 34.2417 39.7328 34.2417 38.2477L33.9447 37.9506H31.5685L31.2714 38.2477C31.2714 41.515 33.3506 43.2972 37.2121 43.2972C41.3705 43.2972 43.1527 41.218 43.1527 38.8417Z" fill="black"/>
</g>
<defs>
<clipPath id="clip0_1290_1414">
<rect width="50" height="50" rx="10" fill="white"/>
</clipPath>
</defs>
</svg>
