<?xml version="1.0" encoding="UTF-8"?> <!-- Generator: Adobe Illustrator 25.0.0, SVG Export Plug-In . SVG Version: 6.00 Build 0) --> <svg xmlns="http://www.w3.org/2000/svg" xmlns:xlink="http://www.w3.org/1999/xlink" id="a0857cd9-dcff-437c-9831-e1aba546319a" x="0px" y="0px" viewBox="0 0 297.5 302.5" style="enable-background:new 0 0 297.5 302.5;" xml:space="preserve"> <style type="text/css"> .st0{fill:#FFFFFF;} </style> <path d="M20,0h257.5c11,0,20,9,20,20v262.5c0,11-9,20-20,20H20c-11,0-20-9-20-20V20C0,9,9,0,20,0"></path> <g> <path class="st0" d="M72,149.2c-0.7-1.6-1.1-2.4-1.6-3.7c-0.5,1.3-0.7,1.6-1.5,3.8l-1.8,4.4h7L72,149.2z M65,159.1l-2.5,5.5h-7.3 l12.7-26.7H74l12.7,26.7h-7.1l-2.7-5.5H65z M104.9,149.5c0.9,0.1,1.9,0,2.7-0.4c1-0.6,1.6-1.6,1.6-2.7c0-1.1-0.6-2.1-1.6-2.7 c-0.9-0.4-1.8-0.5-2.7-0.4H96v6.2L104.9,149.5z M96,164.6h-6.7v-26.7h17.4c3.1,0,4.8,0.4,6.4,1.4c3.3,2.2,4.3,6.6,2.1,9.9 c-0.8,1.3-2.1,2.3-3.5,2.8c2.6,0.9,3.5,2.4,3.5,6.6c0.1,3.3,0.3,4.3,1.1,6H109c-0.5-1.5-0.7-3.1-0.5-4.6c0-3.9-1.1-5.1-4.5-5.1h-8 V164.6z"></path> <path class="st0" d="M147.6,164.6v-26.7H172v5.4h-17.7v5H170v5.4h-15.7v5.5h17.7v5.4L147.6,164.6z"></path> <path class="st0" d="M191.4,164.6h-6.7v-21.3h-9.2v-5.4h25.1v5.4h-9.2L191.4,164.6z"></path> <path class="st0" d="M233.5,154.2c-1.9,7.6-7.1,11.4-15.7,11.4c-9.8,0-16-5.5-16-14.1c0-8.8,6.4-14.5,16.2-14.5 c4.7,0,8.4,1.2,11.3,3.8c2,1.6,3.3,3.9,3.9,6.4h-7.2c-1.4-3.4-4-5-8-5c-5.4,0-9.1,3.8-9.1,9.2c-0.2,4.7,3.4,8.8,8.1,9 c0.3,0,0.6,0,0.9,0c4.3,0,6.8-1.9,8.4-6.2L233.5,154.2z"></path> <path class="st0" d="M257.3,137.9v10.4h-13.7v-10.4h-6.7v26.7h6.7v-10.9h13.7v10.9h6.7v-26.7H257.3z"></path> <path class="st0" d="M33.5,164.6v-26.7H57v5.4H40.2v5h15.3v5.4H40.2v10.8L33.5,164.6z"></path> <path class="st0" d="M120.7,164.6v-26.7h23.4v5.4h-16.7v5h15.4v5.4h-15.4v10.8L120.7,164.6z"></path> </g> </svg> 