<svg width="50" height="50" viewBox="0 0 50 50" fill="none" xmlns="http://www.w3.org/2000/svg">
<g clip-path="url(#clip0_1290_1411)">
<rect width="50" height="50" rx="10" fill="black"/>
<path d="M25 30.95C21.8125 30.95 19.05 28.4 19.05 25C19.05 21.8125 21.6 19.05 25 19.05C28.1875 19.05 30.95 21.6 30.95 25C30.95 28.1875 28.1875 30.95 25 30.95Z" fill="#E5E5E5"/>
<path fill-rule="evenodd" clip-rule="evenodd" d="M32.225 10.55H17.775C16.075 10.7625 15.225 10.975 14.5875 11.1875C13.7375 11.4 13.1 11.825 12.4625 12.4625C11.9581 12.9669 11.7197 13.4714 11.4316 14.0811C11.3557 14.2418 11.2761 14.4103 11.1875 14.5875C11.1546 14.6861 11.1167 14.7898 11.076 14.901C10.8537 15.5083 10.55 16.338 10.55 17.775V32.225C10.7625 33.925 10.975 34.775 11.1875 35.4125C11.4 36.2625 11.825 36.9 12.4625 37.5375C12.9669 38.0419 13.4714 38.2803 14.0811 38.5684C14.242 38.6443 14.4101 38.7238 14.5875 38.8125C14.6861 38.8454 14.7898 38.8833 14.901 38.924C15.5083 39.1463 16.338 39.45 17.775 39.45H32.225C33.925 39.2375 34.775 39.025 35.4125 38.8125C36.2625 38.6 36.9 38.175 37.5375 37.5375C38.0419 37.033 38.2803 36.5286 38.5684 35.9189C38.6443 35.7581 38.7238 35.5899 38.8125 35.4125C38.8454 35.3139 38.8833 35.2102 38.924 35.099C39.1463 34.4917 39.45 33.662 39.45 32.225V17.775C39.2375 16.075 39.025 15.225 38.8125 14.5875C38.6 13.7375 38.175 13.1 37.5375 12.4625C37.0331 11.958 36.5286 11.7197 35.9189 11.4316C35.7583 11.3558 35.5896 11.276 35.4125 11.1875C35.3139 11.1546 35.2102 11.1167 35.099 11.076C34.4917 10.8537 33.662 10.55 32.225 10.55ZM25 15.8625C19.9 15.8625 15.8625 19.9 15.8625 25C15.8625 30.1 19.9 34.1375 25 34.1375C30.1 34.1375 34.1375 30.1 34.1375 25C34.1375 19.9 30.1 15.8625 25 15.8625ZM36.475 15.65C36.475 16.8236 35.5236 17.775 34.35 17.775C33.1764 17.775 32.225 16.8236 32.225 15.65C32.225 14.4764 33.1764 13.525 34.35 13.525C35.5236 13.525 36.475 14.4764 36.475 15.65Z" fill="#E5E5E5"/>
<path fill-rule="evenodd" clip-rule="evenodd" d="M-9 1.625C-9 -4.24303 -4.24303 -9 1.625 -9H48.375C54.243 -9 59 -4.24303 59 1.625V48.375C59 54.243 54.243 59 48.375 59H1.625C-4.24303 59 -9 54.243 -9 48.375V1.625ZM17.775 7.36249H32.225C34.1375 7.57499 35.4125 7.7875 36.475 8.21249C37.75 8.85 38.6 9.27499 39.6625 10.3375C40.725 11.4 41.3625 12.4625 41.7875 13.525C42.2125 14.5875 42.6375 15.8625 42.6375 17.775V32.225C42.425 34.1375 42.2125 35.4125 41.7875 36.475C41.15 37.75 40.725 38.6 39.6625 39.6625C38.6 40.725 37.5375 41.3625 36.475 41.7875C35.4125 42.2125 34.1375 42.6375 32.225 42.6375H17.775C15.8625 42.425 14.5875 42.2125 13.525 41.7875C12.25 41.15 11.4 40.725 10.3375 39.6625C9.275 38.6 8.6375 37.5375 8.2125 36.475C7.7875 35.4125 7.3625 34.1375 7.3625 32.225V17.775C7.575 15.8625 7.7875 14.5875 8.2125 13.525C8.85 12.25 9.275 11.4 10.3375 10.3375C11.4 9.27499 12.4625 8.63749 13.525 8.21249C14.5875 7.7875 15.8625 7.36249 17.775 7.36249Z" fill="#E5E5E5"/>
</g>
<defs>
<clipPath id="clip0_1290_1411">
<rect width="50" height="50" rx="10" fill="white"/>
</clipPath>
</defs>
</svg>
