<svg width="50" height="50" viewBox="0 0 50 50" fill="none" xmlns="http://www.w3.org/2000/svg">
<g clip-path="url(#clip0_1290_1413)">
<rect width="50" height="50" rx="10" fill="black"/>
<path fill-rule="evenodd" clip-rule="evenodd" d="M-2 4.4375C-2 -0.222402 1.7776 -4 6.4375 -4H43.5625C48.2224 -4 52 -0.222402 52 4.4375V41.5625C52 46.2224 48.2224 50 43.5625 50H6.4375C1.7776 50 -2 46.2224 -2 41.5625V4.4375ZM11.8375 18.4438V36.5H17.575V18.4438H11.8375ZM11.5 12.7063C11.5 14.5625 12.85 15.9125 14.7063 15.9125C16.5625 15.9125 17.9125 14.5625 17.9125 12.7063C17.9125 10.85 16.5625 9.5 14.7063 9.5C13.0188 9.5 11.5 10.85 11.5 12.7063ZM32.7625 36.5H38.1625V25.3625C38.1625 19.7937 34.7875 17.9375 31.5812 17.9375C28.7125 17.9375 26.6875 19.7937 26.1812 20.975V18.4438H20.7812V36.5H26.5187V26.8813C26.5187 24.35 28.2062 23 29.8937 23C31.5812 23 32.7625 23.8438 32.7625 26.7125V36.5Z" fill="#E5E5E5"/>
</g>
<defs>
<clipPath id="clip0_1290_1413">
<rect width="50" height="50" rx="10" fill="white"/>
</clipPath>
</defs>
</svg>
