<svg width="500" height="500" viewBox="0 0 500 500" fill="none" xmlns="http://www.w3.org/2000/svg">
<rect width="500" height="500" fill="white"/>
<g clip-path="url(#clip0_1214_912)">
<path d="M97.8775 184.012H101.479C113.982 184.283 126.282 189.304 135.116 198.193C131.854 201.518 128.524 204.707 125.331 208.032C120.37 203.554 114.39 200.093 107.867 198.872C98.2173 196.836 87.8205 198.668 79.7341 204.164C70.9002 209.932 64.9203 219.703 63.6292 230.153C62.2022 240.467 65.1242 251.323 71.8515 259.33C78.3071 267.133 88.1603 272.019 98.3532 272.358C107.867 272.901 117.788 269.983 124.719 263.333C130.155 258.651 132.669 251.527 133.485 244.606C122.205 244.606 110.925 244.673 99.6443 244.606V230.628H147.143C149.59 245.623 146.056 262.519 134.64 273.24C127.029 280.84 116.497 285.318 105.76 286.2C95.3633 287.218 84.6267 285.25 75.3851 280.229C64.3088 274.326 55.4749 264.351 51.1259 252.612C47.0487 241.824 46.9807 229.61 50.7861 218.753C54.2517 208.846 60.9111 200.093 69.4732 193.986C77.6955 187.947 87.6846 184.622 97.8775 184.012Z" fill="black"/>
<path d="M370.369 187.541H384.911V284.437C380.086 284.437 375.194 284.505 370.369 284.369C370.437 252.138 370.369 219.84 370.369 187.541Z" fill="black"/>
<path d="M179.489 221.127C188.459 219.431 198.176 221.331 205.583 226.691C212.31 231.441 216.999 238.905 218.426 247.048C220.261 256.479 217.95 266.793 211.835 274.257C205.243 282.603 194.439 287.082 183.906 286.403C174.257 285.86 164.879 281.043 159.171 273.172C152.715 264.486 151.153 252.544 154.686 242.366C158.22 231.441 168.209 223.095 179.489 221.127ZM181.528 234.02C177.858 234.97 174.46 237.073 172.014 240.059C165.423 247.93 165.83 260.754 173.101 268.083C177.247 272.289 183.498 274.257 189.274 273.104C194.642 272.154 199.331 268.557 201.913 263.808C206.398 255.733 205.107 244.605 198.244 238.294C193.827 234.223 187.372 232.527 181.528 234.02Z" fill="black"/>
<path d="M251.519 221.128C261.78 219.161 272.993 222.011 280.671 229.203C293.175 240.399 294.534 261.366 283.865 274.258C277.409 282.401 266.945 286.879 256.616 286.404C246.763 286.133 237.045 281.247 231.201 273.173C224.61 264.284 223.183 252.07 226.92 241.688C230.658 231.103 240.443 223.028 251.519 221.128ZM253.558 234.021C249.889 234.971 246.491 237.074 244.045 239.992C237.521 247.727 237.793 260.348 244.792 267.744C248.937 272.155 255.393 274.326 261.373 273.105C266.673 272.087 271.43 268.559 274.012 263.809C278.429 255.666 277.138 244.538 270.206 238.228C265.79 234.156 259.334 232.528 253.558 234.021Z" fill="black"/>
<path d="M312.609 225.064C320.424 220.179 330.82 218.822 339.247 223.028C341.897 224.182 344.071 226.15 346.178 228.118C346.246 226.285 346.178 224.386 346.246 222.486C350.799 222.553 355.351 222.486 359.972 222.553V282.401C359.904 291.426 357.594 300.993 351.07 307.575C343.935 314.835 332.995 317.075 323.142 315.582C312.609 314.021 303.435 306.354 299.358 296.65C303.435 294.683 307.716 293.122 311.929 291.29C314.308 296.854 319.132 301.604 325.18 302.689C331.228 303.775 338.227 302.282 342.169 297.261C346.382 292.104 346.382 285.047 346.178 278.737C343.052 281.79 339.45 284.504 335.101 285.522C325.656 288.169 315.259 284.912 307.988 278.533C300.649 272.155 296.3 262.316 296.708 252.545C296.912 241.485 303.164 230.832 312.609 225.064ZM326.675 233.749C322.53 234.428 318.657 236.735 316.007 239.924C309.619 247.524 309.619 259.67 316.075 267.134C319.744 271.544 325.656 273.987 331.364 273.376C336.732 272.834 341.693 269.441 344.343 264.759C348.828 256.82 348.08 246.031 342.033 239.11C338.295 234.835 332.315 232.732 326.675 233.749Z" fill="black"/>
<path d="M402.375 228.524C410.529 220.924 423.101 218.346 433.566 222.349C443.487 226.081 449.806 235.513 453 245.216C438.254 251.323 423.576 257.362 408.831 263.469C410.869 267.337 413.995 270.865 418.208 272.29C424.12 274.394 431.187 273.647 436.148 269.712C438.118 268.219 439.681 266.251 441.176 264.351C444.914 266.862 448.651 269.305 452.388 271.815C447.088 279.754 438.186 285.318 428.605 286.2C418.004 287.489 406.724 283.418 399.861 275.14C388.581 262.112 389.668 240.263 402.375 228.524ZM409.646 241.077C407.336 244.402 406.384 248.473 406.452 252.477C416.305 248.405 426.159 244.334 436.012 240.195C434.381 236.395 430.44 234.088 426.43 233.477C419.975 232.324 413.248 235.784 409.646 241.077Z" fill="black"/>
</g>
<defs>
<clipPath id="clip0_1214_912">
<rect width="405" height="132" fill="white" transform="translate(48 184)"/>
</clipPath>
</defs>
</svg>
