<svg width="500" height="500" viewBox="0 0 500 500" fill="none" xmlns="http://www.w3.org/2000/svg">
<rect width="500" height="500" fill="white"/>
<path d="M117 282.025H180.659V218.317V154.658L117 218.317V282.025Z" fill="black"/>
<path d="M382.208 91H244.293L180.659 154.659H238.994H244.293H318.549V218.317L382.208 154.659V91Z" fill="black"/>
<path d="M199.204 218.316L262.863 281.975H318.549H382.208L318.549 218.316H265.512H199.204Z" fill="black"/>
<path d="M218.418 172.955H199.105V192.268H218.418V172.955Z" fill="black"/>
<path d="M134.704 300.027V317.88H117V300.027H134.704ZM134.704 327.883V407.958H117V327.883H134.704Z" fill="black"/>
<path d="M151.665 306.736H169.368V327.882H185.438V340.683H169.368V384.31C169.368 392.506 171.3 394.437 178.901 394.437H185.314V407.981H172.216C155.106 407.981 151.665 403.376 151.665 386.984V340.683H139.755V327.882H151.665V306.736Z" fill="black"/>
<path d="M235.874 345.884C232.903 345.587 230.08 345.438 227.381 345.438C216.215 345.438 209.826 349.895 209.826 365.989V407.958H192.123V327.883H209.529V342.17C213.838 333.231 221.588 327.883 231.269 327.734C232.606 327.734 234.537 327.883 235.874 328.032V345.884Z" fill="black"/>
<path d="M253.578 372.971C254.766 387.852 265.19 395.156 275.317 395.156C284.702 395.156 291.833 391.591 294.977 383.989H312.384C308.818 396.79 296.611 409.888 276.06 409.888C250.31 409.888 235.577 390.377 235.577 367.326C235.577 343.209 252.092 326.1 274.872 326.1C299.434 326.1 314.909 346.205 313.275 372.996H253.578V372.971ZM253.578 360.021H295.249C294.804 347.517 285.271 339.916 274.847 339.916C266.528 339.941 255.212 344.992 253.578 360.021Z" fill="black"/>
<path d="M353.832 366.286L383 407.958H362.152L343.235 381.018L324.021 407.958H304.51L333.752 367.326L306.193 327.883H327.042L344.151 352.594L361.855 327.883H381.217L353.832 366.286Z" fill="black"/>
</svg>
