<svg width="500" height="500" viewBox="0 0 500 500" fill="none" xmlns="http://www.w3.org/2000/svg">
<rect width="500" height="500" fill="white"/>
<path d="M123.671 209L132.668 262.488H133.188L142.705 209H159.133L142.57 292H125.112L115.317 234.952H114.807L105.021 292H87.5631L71 209H88.4584L97.7247 262.488H98.2485L107.506 209H123.671Z" fill="black"/>
<path d="M197.237 209L220.837 292H203.102L198.016 272.897H174.027L168.812 292H152.517L176.113 209H197.237ZM177.809 258.932H194.234L186.413 229.289H185.894L177.809 258.932Z" fill="black"/>
<path d="M268.521 258.14H269.04V209H285.075V292H271.386L243.229 239.698H242.705V292H226.541V209H243.104L268.521 258.14Z" fill="black"/>
<path d="M335.423 258.14H335.942V209H351.977V292H338.287L310.13 239.698H309.598V292H293.442V209H310.005L335.423 258.14Z" fill="black"/>
<path d="M402.404 209L425.987 292H408.269L403.183 272.897H379.198L373.983 292H357.684L381.28 209H402.404ZM382.976 258.932H399.405L391.58 229.289H391.07L382.976 258.932Z" fill="black"/>
</svg>
