<svg width="500" height="500" viewBox="0 0 500 500" fill="none" xmlns="http://www.w3.org/2000/svg">
<rect width="500" height="500" fill="white"/>
<g clip-path="url(#clip0_1215_950)">
<path d="M94.25 202.293C94.25 201.431 93.8125 201 92.9375 201H76.3125C75.4375 201 75 201.431 75 202.509L75.2188 281.402C75.2188 295.629 80.6875 298 93.375 298C93.8125 298 94.0312 298 94.4688 297.569C94.6875 297.353 94.6875 296.491 94.6875 296.491L94.25 202.293Z" fill="black"/>
<path d="M108.687 216.089C107.812 216.089 107.375 215.658 107.375 214.796V202.509C107.375 201.431 107.812 201 108.687 201H125.312C126.187 201 126.625 201.431 126.625 202.293V214.58C126.844 215.658 126.406 216.089 125.312 216.089H108.687ZM108.906 298C108.031 298 107.594 297.569 107.594 296.707V231.178C107.594 230.316 108.031 229.884 108.906 229.884H125.531C126.406 229.884 126.844 230.316 126.844 231.178V296.707C126.844 297.784 126.406 298 125.531 298H108.906Z" fill="black"/>
<path d="M144.781 298C143.688 298 143.469 297.569 143.469 296.707V244.973C143.469 244.327 143.25 244.111 142.594 244.111H138.438C137.563 244.111 137.125 243.68 137.125 242.818V231.393C137.125 230.531 137.563 230.1 138.438 230.1H142.594C143.031 230.1 143.469 229.884 143.469 229.238V224.496C143.25 207.898 150.906 201 166.875 201H177.375C178.25 201 178.688 201.431 178.688 202.293V214.796C178.688 215.873 178.25 216.089 177.375 216.089H170.156C164.031 216.089 162.5 217.598 162.5 223.202V228.591C162.5 229.238 162.719 229.453 163.375 229.453H172.125C173 229.453 173.438 229.884 173.438 230.747V242.171C173.438 243.249 173 243.464 172.125 243.464H163.375C162.719 243.464 162.5 243.68 162.5 244.327V296.06C162.5 296.922 162.063 297.353 161.188 297.353L144.781 298Z" fill="black"/>
<path d="M181.312 279.247C179.781 274.504 179.125 269.331 179.125 263.511C179.125 257.26 179.563 252.087 181.094 247.56C185.031 235.704 195.531 228.807 209.969 228.807C224.625 228.807 235.125 235.704 239.063 247.344C240.594 252.087 240.813 258.769 240.813 267.607C240.813 268.469 240.156 268.9 239.281 268.9H199.469C198.813 268.9 198.594 269.116 198.594 269.762C198.813 271.056 198.594 272.349 199.031 273.427C200.781 279.247 205.594 282.264 212.813 282.264C218.281 282.264 222.438 280.54 225.062 278.816C227.469 277.091 227.469 276.444 228.781 277.522L239.063 284.851C239.938 285.498 239.938 286.144 239.281 286.791C232.281 294.12 222.875 298 210.844 298C195.969 298 185.25 291.102 181.312 279.247ZM221.125 256.398C221.781 256.398 222 256.182 222 255.536C222 253.811 221.781 252.087 221.344 250.578C219.594 245.836 216.313 243.249 210.406 243.249C205.156 243.249 200.562 245.836 198.812 250.578C198.375 252.087 198.156 253.811 198.156 255.536C198.156 256.182 198.375 256.398 199.031 256.398H221.125Z" fill="black"/>
<path d="M249.781 279.247C248.25 275.367 247.812 269.978 247.812 263.511C247.812 257.044 248.25 251.656 249.781 247.56C253.719 235.273 264.219 228.807 278.656 228.807C289.812 228.807 299 233.764 304.031 241.309C304.469 241.956 304.469 242.602 303.812 243.249L291.562 251.009C290.688 251.656 290.031 251.44 289.594 250.793C286.75 246.913 283.25 244.973 278.875 244.973C273.406 244.973 269.906 247.344 268.375 252.087C267.5 254.458 267.063 258.338 267.063 263.511C267.063 268.684 267.5 272.564 268.375 274.936C269.906 279.678 273.406 282.049 278.875 282.049C283.25 282.049 286.75 280.109 289.594 276.229C290.031 275.582 290.906 275.367 291.562 276.013L303.594 283.773C304.25 284.204 304.25 285.067 303.812 285.713C298.781 293.258 289.594 298.216 278.438 298.216C264.219 298 253.719 291.533 249.781 279.247Z" fill="black"/>
<path d="M308.188 279.247C306.656 274.504 306 269.331 306 263.511C306 257.26 306.438 252.087 307.969 247.56C311.906 235.704 322.406 228.807 336.844 228.807C351.5 228.807 362 235.704 365.938 247.344C367.469 252.087 367.688 258.769 367.688 267.607C367.688 268.469 367.031 268.9 366.156 268.9H326.344C325.688 268.9 325.469 269.116 325.469 269.762C325.688 271.056 325.469 272.349 325.906 273.427C327.656 279.247 332.469 282.264 339.688 282.264C345.156 282.264 349.312 280.54 351.938 278.816C354.344 277.091 354.344 276.444 355.656 277.522L365.938 284.851C366.813 285.498 366.813 286.144 366.156 286.791C359.156 294.12 349.75 298 337.719 298C322.844 298 312.125 291.102 308.188 279.247ZM348 256.398C348.656 256.398 348.875 256.182 348.875 255.536C348.875 253.811 348.656 252.087 348.219 250.578C346.469 245.836 343.188 243.249 337.281 243.249C332.031 243.249 327.438 245.836 325.688 250.578C325.25 252.087 325.031 253.811 325.031 255.536C325.031 256.182 325.25 256.398 325.906 256.398H348Z" fill="black"/>
<path d="M396.125 202.293C396.125 201.431 395.687 201 394.812 201H378.188C377.313 201 376.875 201.431 376.875 202.509L377.094 281.402C377.094 295.629 382.562 298 395.25 298C395.687 298 395.906 298 396.344 297.569C396.562 297.353 396.562 296.491 396.562 296.491L396.125 202.293Z" fill="black"/>
<path d="M424.563 202.293C424.563 201.431 424.125 201 423.25 201H406.625C405.75 201 405.312 201.431 405.312 202.509L405.531 281.402C405.531 295.629 411 298 423.687 298C424.125 298 424.344 298 424.781 297.569C425 297.353 425 296.491 425 296.491L424.563 202.293Z" fill="black"/>
</g>
<defs>
<clipPath id="clip0_1215_950">
<rect width="350" height="97" fill="white" transform="translate(75 201)"/>
</clipPath>
</defs>
</svg>
