<svg width="237" height="125" viewBox="0 0 237 125" fill="none" xmlns="http://www.w3.org/2000/svg">
<mask id="mask0_602_607" style="mask-type:alpha" maskUnits="userSpaceOnUse" x="0" y="0" width="237" height="125">
<rect width="237" height="125" rx="20" fill="#41A1D4"/>
</mask>
<g mask="url(#mask0_602_607)">
<rect width="237" height="125" rx="20" fill="#41A1D4"/>
<path d="M12.1167 67.0069C12.1141 51.7056 18.2638 37.0459 29.1822 26.326C40.1006 15.6061 54.8707 9.72643 70.1693 10.0098C88.2956 9.91353 105.592 17.6007 117.667 31.1198C129.742 17.6007 147.038 9.91353 165.164 10.0098C180.463 9.72643 195.233 15.6061 206.151 26.326C217.07 37.0459 223.22 51.7056 223.217 67.0069C223.217 123.539 155.887 166.224 117.667 200C79.5316 165.939 12.1167 123.582 12.1167 67.0069Z" fill="#FF97F5"/>
<path d="M41.6191 69.7398C41.6173 58.7155 46.048 48.1533 53.9146 40.4297C61.7812 32.7062 72.4229 28.4699 83.4454 28.674C96.5053 28.6047 108.967 34.1432 117.667 43.8836C126.367 34.1432 138.829 28.6047 151.888 28.674C162.911 28.4699 173.553 32.7062 181.419 40.4297C189.286 48.1533 193.717 58.7155 193.715 69.7398C193.715 110.471 145.204 141.225 117.667 165.56C90.1908 141.019 41.6191 110.501 41.6191 69.7398Z" fill="#EE5424"/>
<path d="M75.585 71.2339C75.5839 65.1335 78.0357 59.2888 82.3888 55.0149C86.7419 50.741 92.6305 48.3968 98.7299 48.5098C105.957 48.4714 112.853 51.5362 117.667 56.9261C122.481 51.5362 129.377 48.4714 136.604 48.5098C142.703 48.3968 148.592 50.741 152.945 55.0149C157.298 59.2888 159.75 65.1335 159.748 71.2339C159.748 93.7729 132.905 110.791 117.667 124.257C102.463 110.677 75.585 93.7897 75.585 71.2339Z" fill="#FFD20C"/>
</g>
</svg>
