<svg width="125" height="125" viewBox="0 0 125 125" fill="none" xmlns="http://www.w3.org/2000/svg">
<mask id="mask0_1231_941" style="mask-type:alpha" maskUnits="userSpaceOnUse" x="0" y="0" width="125" height="125">
<rect width="125" height="125" rx="20" fill="#FF97F5"/>
</mask>
<g mask="url(#mask0_1231_941)">
<rect width="125" height="125" rx="20" fill="#FF97F5"/>
<circle cx="63.4118" cy="56.4284" r="49.4118" fill="#EE5424"/>
<path d="M41.779 40.2512C43.0426 40.2512 44.1069 39.1891 43.624 38.0214C43.3335 37.3192 42.9059 36.6736 42.3581 36.1258C41.264 35.0317 39.78 34.417 38.2327 34.417C36.6853 34.417 35.2014 35.0317 34.1072 36.1258C33.5594 36.6736 33.1318 37.3192 32.8414 38.0214C32.3584 39.1891 33.4228 40.2512 34.6864 40.2512L38.2327 40.2512H41.779Z" fill="black"/>
<circle cx="89.7478" cy="36.0012" r="5.83424" fill="black"/>
<path d="M89.0852 51.2364C89.7905 51.4911 90.1588 52.2709 89.8712 52.9634C87.7934 57.9661 84.3437 62.2915 79.9078 65.4326C75.102 68.8357 69.3692 70.6854 63.4806 70.7329C57.592 70.7804 51.8302 69.0233 46.97 65.6982C42.4841 62.629 38.9651 58.3598 36.8069 53.3912C36.5082 52.7034 36.8638 51.9178 37.5649 51.6518V51.6518C38.266 51.3857 39.0468 51.7402 39.3489 52.4265C41.308 56.877 44.4754 60.7011 48.5034 63.457C52.9057 66.4689 58.1248 68.0604 63.4587 68.0174C68.7926 67.9744 73.9853 66.2989 78.3385 63.2164C82.3216 60.3959 85.4269 56.5213 87.314 52.0398C87.605 51.3487 88.3799 50.9817 89.0852 51.2364V51.2364Z" fill="black"/>
<path d="M83.8819 53.1428C83.1748 52.4834 83.1291 51.3473 83.9627 50.8575C84.5161 50.5323 85.1209 50.2953 85.7557 50.1586C86.9652 49.898 88.2255 50.0141 89.3671 50.4912C90.5087 50.9683 91.4768 51.7837 92.1412 52.8275C92.4898 53.3752 92.746 53.9721 92.9034 54.5944C93.1406 55.5318 92.3001 56.2974 91.334 56.2575L91.1375 56.2494C90.28 56.214 89.6482 55.4316 89.1873 54.7075V54.7075C88.907 54.2671 88.4985 53.9231 88.0169 53.7218C87.5352 53.5205 87.0034 53.4715 86.4931 53.5814V53.5814C85.654 53.7622 84.6534 53.8623 84.0257 53.2769L83.8819 53.1428Z" fill="black"/>
<path d="M42.5324 53.2834C43.1661 52.6925 43.2074 51.6778 42.4739 51.2167C41.8791 50.8427 41.2203 50.5729 40.5256 50.4232C39.3161 50.1626 38.0557 50.2787 36.9141 50.7559C35.7725 51.233 34.8044 52.0483 34.1401 53.0921C33.7585 53.6916 33.4876 54.35 33.3358 55.036C33.1487 55.882 33.8998 56.5654 34.7655 56.5297V56.5297C35.6311 56.4939 36.27 55.7168 36.6824 54.9548C36.7151 54.8944 36.7499 54.8351 36.787 54.7768C37.1072 54.2737 37.5738 53.8807 38.1241 53.6508C38.6743 53.4208 39.2818 53.3648 39.8648 53.4904C39.9323 53.505 39.999 53.5218 40.065 53.541C40.8969 53.7829 41.8988 53.8743 42.5324 53.2834V53.2834Z" fill="black"/>
<path d="M-26 56.0027C-26 56.0027 0.0838947 43.2152 18 43.0027C36.6664 42.7814 64 56.0027 64 56.0027V146.003C64 146.003 36.6664 132.781 18 133.003C0.0838947 133.215 -26 146.003 -26 146.003V56.0027Z" fill="#41A1D4"/>
<path d="M64 56.0027C64 56.0027 90.0839 43.2152 108 43.0027C126.666 42.7814 154 56.0027 154 56.0027V146.003C154 146.003 126.666 132.781 108 133.003C90.0839 133.215 64 146.003 64 146.003V56.0027Z" fill="#EBC814"/>
</g>
</svg>
